<svg width="960" height="1000" viewBox="0 0 960 1000" fill="none" xmlns="http://www.w3.org/2000/svg">
  <path d="M286.17 -43C269.658 24.5693 276.263 165.181 434.779 187.073C632.925 214.439 736.605 -1.95166 604.7 -12.5938C472.795 -23.236 520.604 298.056 667.485 337.584C784.99 369.206 951.455 304.137 1020 267.65" stroke="#364667"/>
  <path d="M1069.78 905.061C1041.41 855.035 952.534 783.625 824.048 898.194C663.44 1041.41 717.33 1242.16 819.718 1142.69C922.105 1043.22 695.218 906.165 564.659 1001.83C460.212 1078.36 377.929 1246.7 349.843 1321.3" stroke="#364667"/>
  <path d="M163.795 755.694C175.693 752.506 186.579 763.392 183.391 775.29L165.708 841.287C162.52 853.184 147.648 857.169 138.939 848.459L90.6259 800.146C81.9166 791.437 85.9013 776.565 97.7984 773.378L163.795 755.694Z" fill="#4A9F81"/>
  <circle cx="-25" cy="-29" r="168" stroke="#7CB1FF" stroke-opacity="0.28" stroke-width="68"/>
  <path d="M708.234 220.4C726.132 159.258 802.445 138.81 848.517 182.811L1319.32 632.451C1367.27 678.245 1346.65 758.863 1282.61 776.024L628.905 951.184C564.86 968.345 506.701 908.833 525.329 845.199L708.234 220.4Z" fill="#191C37"/>
</svg>
