<svg width="960" height="1000" viewBox="0 0 960 1000" fill="none" xmlns="http://www.w3.org/2000/svg">
  <g clip-path="url(#clip0_35_57)">
    <rect width="1292" height="1000" fill="url(#paint0_radial_35_57)"/>
    <path d="M542.969 219.86L675.109 23.0029C686.438 6.1254 705.429 -4 725.757 -4H1094.87C1127.58 -4 1154.46 21.7933 1155.82 54.4707L1173.87 489.513C1175.76 535.029 1128.9 566.48 1087.49 547.488L568.186 309.303C534.014 293.63 522.016 251.075 542.969 219.86Z" fill="url(#paint1_linear_35_57)"/>
    <path d="M267.205 659.88L277.611 896.745C278.504 917.053 269.221 936.471 252.857 948.529L-44.2895 1167.5C-70.6184 1186.9 -107.564 1182.09 -128.041 1156.59L-400.657 817.074C-429.18 781.553 -410.115 728.435 -365.513 719.16L193.844 602.835C230.652 595.18 265.555 622.321 267.205 659.88Z" fill="url(#paint2_linear_35_57)"/>
    <circle cx="241" cy="193" r="125" fill="#FF3773"/>
    <path d="M414.943 260.175C407.189 249.914 397.442 241.324 386.286 234.922C375.131 228.52 362.797 224.438 350.025 222.919C337.253 221.401 324.306 222.478 311.961 226.086C299.615 229.695 288.126 235.759 278.182 243.917C268.238 252.074 260.044 262.156 254.092 273.558C248.14 284.96 244.553 297.447 243.545 310.269C242.537 323.092 244.13 335.985 248.228 348.177C252.326 360.369 258.844 371.607 267.391 381.218L293.282 358.192C287.835 352.068 283.682 344.907 281.071 337.138C278.46 329.37 277.445 321.154 278.087 312.984C278.729 304.814 281.015 296.857 284.807 289.592C288.6 282.327 293.821 275.903 300.157 270.705C306.493 265.507 313.814 261.642 321.681 259.343C329.547 257.044 337.797 256.358 345.935 257.325C354.073 258.293 361.932 260.894 369.04 264.974C376.148 269.053 382.359 274.526 387.3 281.064L414.943 260.175Z" fill="#FFAF37"/>
    <path d="M764.529 206.424L1013.27 337.872L775.061 487.562L764.529 206.424Z" fill="#31BF73"/>
    <rect x="540.073" y="761.696" width="203" height="203" rx="36" transform="rotate(-15.9027 540.073 761.696)" fill="#062B53"/>
  </g>
  <defs>
    <radialGradient id="paint0_radial_35_57" cx="0" cy="0" r="1" gradientUnits="userSpaceOnUse" gradientTransform="translate(-34.3188 31) rotate(36.4866) scale(1629.57 1582.31)">
      <stop stop-color="#2b3467"/>
      <stop offset="0.505208" stop-color="#1f264b"/>
      <stop offset="1"/>
    </radialGradient>
    <linearGradient id="paint1_linear_35_57" x1="840.5" y1="-4" x2="840.5" y2="589" gradientUnits="userSpaceOnUse">
      <stop stop-color="#133A63"/>
      <stop offset="1" stop-color="#003269"/>
      <stop offset="1" stop-color="#002A57"/>
    </linearGradient>
    <linearGradient id="paint2_linear_35_57" x1="160.486" y1="1016.6" x2="-191.303" y2="539.217" gradientUnits="userSpaceOnUse">
      <stop stop-color="#133A63"/>
      <stop offset="1" stop-color="#003269"/>
      <stop offset="1" stop-color="#002A57"/>
    </linearGradient>
    <clipPath id="clip0_35_57">
      <rect width="1292" height="1000" fill="white"/>
    </clipPath>
  </defs>
</svg>
